<?xml version="1.0" encoding="UTF-8"?>
<svg id="Camada_1" xmlns="http://www.w3.org/2000/svg" version="1.1" viewBox="0 0 1080 1080">
  <!-- Generator: Adobe Illustrator 29.1.0, SVG Export Plug-In . SVG Version: 2.1.0 Build 142)  -->
  <defs>
    <style>
      .st0 {
        fill: #fff;
      }

      .st1 {
        fill: #39228c;
      }
    </style>
  </defs>
  <rect class="st1" width="1080" height="1080"/>
  <g>
    <g>
      <path class="st0" d="M599.29,563.85c-.04,19.06-7.19,34.77-22.17,46.66-9.99,7.93-21.57,11.48-34.32,11.6-12.22.12-23.82-1.91-34.44-8.4-9.06-5.53-15.26-13.37-20.08-22.64-6.17-11.85-7.22-24.22-5.06-37.18,1.63-9.81,5.48-18.58,11.91-26.06,11.08-12.88,25.41-19.48,42.3-20.53,14.12-.88,27.34,2.19,38.64,10.83,14.96,11.44,23.16,26.62,23.22,45.74ZM567.14,565.42c.12-7.7-1.01-14.12-5.58-19.65-4.33-5.25-9.27-9.39-16.29-10.17-7.97-.88-15.57-.08-21.84,5.68-4.97,4.56-8.11,10.08-9.09,16.8-1.15,7.8-.9,15.54,3.36,22.34,7.1,11.35,15.92,14.13,28.98,12.86,6.98-.68,11.66-4.7,15.51-10.25,3.89-5.62,5.28-11.78,4.96-17.61Z"/>
      <path class="st0" d="M723.7,507.16h32.1c.05,1.14.13,1.93.12,2.72-.21,20.04-.51,40.07-.57,60.11-.01,4.43.53,8.94,1.43,13.29,1.24,6.02,5.58,9.44,11.42,10.22,4.13.55,8.51.38,12.64-.32,6.23-1.05,11.3-7.27,11.33-13.61.11-19.71.02-39.42.01-59.13,0-4.23,0-8.45,0-13.03h31.45v33.89c0,12.87-.37,25.75.09,38.6.73,20.5-17.36,39.71-37.73,42.33-11.33,1.46-22.59,1.58-33.38-2.14-14.62-5.04-24.52-14.99-27.68-30.51-.92-4.5-.96-9.23-1-13.86-.19-22.56-.25-45.12-.35-67.69,0-.23.06-.45.12-.87Z"/>
      <path class="st0" d="M857.11,584.67c2.22,1.58,4.45,3.17,6.68,4.75,6.2,4.37,13.24,5.96,20.67,5.98,1.64,0,3.52-.51,4.88-1.4,5.52-3.61,3.66-8.39-.88-11.43-2.14-1.43-4.95-1.91-7.49-2.69-7.19-2.21-14.48-4.11-21.56-6.61-3.8-1.34-7.41-3.43-10.82-5.62-6.21-3.99-9.63-9.98-10-17.23-.28-5.43-.1-11.02.93-16.35,1.72-8.92,7.45-15.26,15.35-19.44,12.93-6.84,26.48-7.42,40.42-3.44,9.6,2.74,18.22,7.1,25.44,14.09,1.38,1.34,1.29,2.17-.15,3.38-4.85,4.07-9.61,8.26-14.42,12.37-1.37,1.17-2.84,2.21-4.23,3.36-1.29,1.08-2.07.67-3.05-.56-1-1.25-2.27-2.4-3.64-3.22-6.18-3.71-12.83-5.98-20.13-5.22-2.09.22-4.33.96-6.06,2.12-3.13,2.09-2.88,7.04.53,8.58,4.61,2.08,9.51,3.52,14.29,5.23,7.3,2.61,14.68,5,21.87,7.88,5.72,2.29,10.31,6.38,13.87,11.33,2.78,3.87,3.67,8.57,3.98,13.34,1.33,20.29-13.33,33.96-30.69,36.94-13.43,2.3-26.6,1.24-39.28-3.85-6.28-2.52-12.12-5.87-17.02-10.66-.6-.59-1.35-1.04-2.38-1.81,7.36-7.07,14.37-14.24,22.91-19.81Z"/>
      <rect class="st0" x="376.18" y="508.12" width="31.7" height="114.56"/>
      <polygon class="st0" points="484.21 622.68 450.1 622.68 447.75 619.11 429.06 590.7 411.05 563.32 428.12 537.38 447.36 508.12 483.29 508.12 483.29 508.24 447.75 562.29 446.12 564.76 447.75 567.24 483.29 621.28 484.21 622.68"/>
      <g>
        <path class="st0" d="M724.29,622.68h-36.03l-.83-1.16-24.36-34.14-16.29-22.83h21.16c4.06,0,8-1.73,10.54-4.9.15-.18.29-.37.42-.56,1.78-2.44,2.81-5.46,2.76-8.72-.13-7.91-6.79-14.17-14.7-14.17h-54.46s0-28.1,0-28.1h61.15c4.72,0,9.41.94,13.7,2.9.03.01.06.03.09.04,10.47,4.8,18.53,13.96,21.86,25.16,1.09,3.65,1.68,7.52,1.68,11.53,0,6-1.31,11.7-3.66,16.81-2.93,6.39-7.48,11.88-13.13,15.94l29.28,41.02.83,1.16Z"/>
        <rect class="st0" x="612.5" y="564.56" width="34.1" height="58.12"/>
      </g>
    </g>
    <g>
      <path class="st0" d="M340.99,458.27c2.46,0,3.69,2.98,1.95,4.71l-112.06,112.06-41.35,41.35c-.92.92-2.44.77-3.17-.3l-28.6-41.91c-1.88-2.76-1.88-6.39,0-9.15l28.33-41.5,38.14-55.88c4.01-5.87,10.65-9.38,17.76-9.38h99Z"/>
      <path class="st0" d="M331.18,670.86h-84.23c-14.53,0-28.12-7.18-36.31-19.18l-14.12-20.69c-.56-.82-.46-1.92.24-2.62l46.73-46.73c.79-.79,2.08-.81,2.89-.03l87,83.78h0c2.06,1.98.65,5.46-2.2,5.46Z"/>
    </g>
  </g>
</svg>