<?xml version="1.0" encoding="UTF-8"?>
<svg id="Camada_1" xmlns="http://www.w3.org/2000/svg" version="1.1" viewBox="0 0 1080 1080">
  <!-- Generator: Adobe Illustrator 29.1.0, SVG Export Plug-In . SVG Version: 2.1.0 Build 142)  -->
  <defs>
    <style>
      .st0 {
        fill: #39228c;
      }
    </style>
  </defs>
  <path class="st0" d="M792.71,276.99c6.84,0,10.26,8.27,5.43,13.1l-311.41,311.41-114.89,114.89c-2.55,2.55-6.79,2.15-8.82-.83l-79.49-116.47c-5.23-7.67-5.23-17.76,0-25.43l78.72-115.33,105.99-155.29c11.13-16.31,29.6-26.07,49.35-26.07h275.12Z"/>
  <path class="st0" d="M765.47,867.75h-234.07c-40.37,0-78.13-19.95-100.89-53.29l-39.24-57.49c-1.55-2.27-1.27-5.33.68-7.28l129.86-129.86c2.21-2.21,5.77-2.24,8.02-.08l241.76,232.82h0c5.71,5.5,1.82,15.17-6.11,15.17Z"/>
</svg>